<svg width="73" height="60" viewBox="0 0 73 60" fill="none" xmlns="http://www.w3.org/2000/svg">
<path d="M47.7164 0H25.3201C4.86545 0 0 3.999 0 20.781V39.189C0 55.998 4.82895 60 25.2836 60H47.68C68.1309 60 73 56.031 73 39.219V20.811C73 3.999 68.1711 0 47.7164 0ZM58.9329 42.81H53.6076C51.5928 42.81 50.9869 41.469 47.3734 38.499C44.2198 36 42.8875 35.688 42.0882 35.688C40.9859 35.688 40.6829 35.937 40.6829 37.188V41.124C40.6829 42.189 40.2632 42.813 36.8796 42.813C33.5959 42.6316 30.4115 41.8116 27.5889 40.4206C24.7662 39.0295 22.3861 37.1072 20.6444 34.812C16.5096 30.582 13.6325 25.6174 12.2421 20.313C12.2421 19.656 12.5451 19.062 14.0671 19.062H19.3888C20.7575 19.062 21.2503 19.563 21.7868 20.718C24.371 26.97 28.7803 32.406 30.5688 32.406C31.255 32.406 31.5543 32.157 31.5543 30.75V24.312C31.328 21.375 29.43 21.126 29.43 20.064C29.4543 19.7839 29.6105 19.5226 29.8654 19.3355C30.1202 19.1485 30.4537 19.0504 30.7951 19.062H39.1609C40.3033 19.062 40.6829 19.53 40.6829 20.655V29.343C40.6829 30.282 41.1757 30.594 41.5187 30.594C42.205 30.594 42.7342 30.282 43.9898 29.25C46.6866 26.5468 48.89 23.5352 50.5306 20.31C50.6983 19.9226 51.0156 19.5909 51.4341 19.3656C51.8526 19.1402 52.3493 19.0336 52.8484 19.062H58.1737C59.7687 19.062 60.1082 19.719 59.7688 20.655C57.8324 24.2203 55.4365 27.6046 52.6221 30.75C52.049 31.47 51.819 31.845 52.6221 32.688C53.1513 33.345 55.0164 34.626 56.272 35.844C58.0967 37.3399 59.6119 39.0707 60.7579 40.968C61.2141 42.186 60.4513 42.81 58.9329 42.81Z" fill="white"/>
</svg>
