<svg width="76" height="76" viewBox="0 0 76 76" fill="none" xmlns="http://www.w3.org/2000/svg">
<path fill-rule="evenodd" clip-rule="evenodd" d="M38 12.0001C33.1155 12.0012 28.3301 13.3782 24.192 15.9733C20.0539 18.5685 16.7305 22.2768 14.6026 26.6735C12.4748 31.0701 11.6284 35.9772 12.1605 40.8327C12.6927 45.6881 14.5818 50.2955 17.6115 54.1268C20.6412 57.9582 24.6888 60.8587 29.2908 62.4959C33.8927 64.1332 38.8628 64.441 43.6316 63.3841C48.4004 62.3272 52.7751 59.9483 56.2543 56.5201C59.7336 53.0918 62.1768 48.7527 63.304 44.0001H42C40.4087 44.0001 38.8826 43.3679 37.7574 42.2427C36.6321 41.1175 36 39.5914 36 38.0001C36 36.4088 36.6321 34.8827 37.7574 33.7575C38.8826 32.6322 40.4087 32.0001 42 32.0001H70C71.5913 32.0001 73.1174 32.6322 74.2426 33.7575C75.3679 34.8827 76 36.4088 76 38.0001C76 46.7871 72.9547 55.3025 67.3826 62.0969C61.8105 68.8912 54.056 73.5445 45.439 75.2647C36.822 76.9849 27.8752 75.6656 20.1215 71.5314C12.3678 67.3972 6.28642 60.7037 2.91262 52.5902C-0.461185 44.4767 -0.918907 35.4447 1.61737 27.0317C4.15364 18.6187 9.52714 11.3447 16.8232 6.44784C24.1192 1.55098 32.8868 -0.666037 41.6336 0.174179C50.3803 1.01439 58.5656 4.85991 64.796 11.0561C65.3546 11.6119 65.7984 12.2722 66.1018 12.9995C66.4052 13.7267 66.5625 14.5066 66.5645 15.2946C66.5665 16.0826 66.4134 16.8632 66.1137 17.592C65.814 18.3208 65.3738 18.9835 64.818 19.5421C64.2622 20.1008 63.6019 20.5445 62.8747 20.8479C62.1474 21.1513 61.3676 21.3086 60.5796 21.3106C58.9881 21.3147 57.4602 20.6865 56.332 19.5641C53.923 17.1609 51.0641 15.2559 47.9186 13.9581C44.7731 12.6602 41.4027 11.9949 38 12.0001Z" fill="white"/>
</svg>
