<svg width="40" height="41" viewBox="0 0 40 41" fill="none" xmlns="http://www.w3.org/2000/svg">
<path d="M20 23.0625C18.7639 23.0625 17.5555 22.6868 16.5277 21.9829C15.4999 21.2789 14.6988 20.2784 14.2258 19.1078C13.7527 17.9372 13.6289 16.6491 13.8701 15.4065C14.1113 14.1638 14.7065 13.0223 15.5806 12.1264C16.4547 11.2304 17.5683 10.6203 18.7807 10.3731C19.9931 10.1259 21.2497 10.2528 22.3918 10.7376C23.5338 11.2225 24.5099 12.0436 25.1967 13.0971C25.8834 14.1506 26.25 15.3892 26.25 16.6563C26.248 18.3547 25.5889 19.9829 24.4172 21.1839C23.2456 22.3849 21.657 23.0605 20 23.0625ZM20 12.8125C19.2583 12.8125 18.5333 13.0379 17.9166 13.4603C17.2999 13.8826 16.8193 14.483 16.5355 15.1853C16.2516 15.8877 16.1774 16.6605 16.3221 17.4061C16.4668 18.1517 16.8239 18.8366 17.3484 19.3742C17.8728 19.9118 18.541 20.2778 19.2684 20.4261C19.9958 20.5745 20.7498 20.4983 21.4351 20.2074C22.1203 19.9165 22.706 19.4238 23.118 18.7917C23.5301 18.1596 23.75 17.4165 23.75 16.6563C23.749 15.6371 23.3536 14.6601 22.6506 13.9394C21.9475 13.2188 20.9943 12.8135 20 12.8125Z" fill="white"/>
<path d="M20 38.4375L9.45502 25.6903C9.30849 25.4989 9.16349 25.3063 9.02002 25.1125C7.21874 22.6804 6.24565 19.7097 6.25001 16.6562C6.25001 12.9183 7.69867 9.33352 10.2773 6.69043C12.8559 4.04734 16.3533 2.56247 20 2.56247C23.6467 2.56247 27.1441 4.04734 29.7227 6.69043C32.3014 9.33352 33.75 12.9183 33.75 16.6562C33.7544 19.7083 32.7817 22.6776 30.9813 25.1086L30.98 25.1125C30.98 25.1125 30.605 25.6173 30.5488 25.6852L20 38.4375ZM11.015 23.5686C11.0175 23.5686 11.3075 23.9632 11.3738 24.0478L20 34.4758L28.6375 24.0337C28.6925 23.9632 28.985 23.566 28.9863 23.5647C30.4577 21.5776 31.2529 19.1509 31.25 16.6562C31.25 13.5979 30.0648 10.6649 27.955 8.50239C25.8452 6.33987 22.9837 5.12497 20 5.12497C17.0163 5.12497 14.1548 6.33987 12.0451 8.50239C9.93528 10.6649 8.75001 13.5979 8.75001 16.6562C8.74739 19.1524 9.54224 21.5806 11.015 23.5686Z" fill="white"/>
</svg>
