<svg width="35" height="43" viewBox="0 0 35 43" fill="none" xmlns="http://www.w3.org/2000/svg">
<path d="M34.0576 17.1484L19.4742 0.918772C19.4671 0.911435 19.4604 0.903533 19.4542 0.895119C18.9172 0.319157 18.2176 0 17.4918 0C16.766 0 16.0664 0.319157 15.5294 0.895119L15.5094 0.918772L0.942448 17.1484C0.645308 17.4706 0.408122 17.8622 0.245896 18.2982C0.0836704 18.7342 -6.13281e-05 19.2051 3.37018e-08 19.6813V39.5597C3.37018e-08 40.4721 0.307291 41.3472 0.854272 41.9924C1.40125 42.6375 2.14312 43 2.91667 43H11.6667C12.4402 43 13.1821 42.6375 13.7291 41.9924C14.276 41.3472 14.5833 40.4721 14.5833 39.5597V29.2388H20.4167V39.5597C20.4167 40.4721 20.724 41.3472 21.2709 41.9924C21.8179 42.6375 22.5598 43 23.3333 43H32.0833C32.8569 43 33.5987 42.6375 34.1457 41.9924C34.6927 41.3472 35 40.4721 35 39.5597V19.6813C35.0001 19.2051 34.9163 18.7342 34.7541 18.2982C34.5919 17.8622 34.3547 17.4706 34.0576 17.1484ZM32.0833 39.5597H23.3333V29.2388C23.3333 28.3264 23.026 27.4514 22.4791 26.8062C21.9321 26.161 21.1902 25.7985 20.4167 25.7985H14.5833C13.8098 25.7985 13.0679 26.161 12.5209 26.8062C11.974 27.4514 11.6667 28.3264 11.6667 29.2388V39.5597H2.91667V19.6813L2.93672 19.6598L17.5 3.43664L32.0651 19.6555L32.0852 19.677L32.0833 39.5597Z" fill="white"/>
</svg>
