<svg width="38" height="37" viewBox="0 0 38 37" fill="none" xmlns="http://www.w3.org/2000/svg">
<path d="M24.4223 0H13.1671C2.88773 0 0.442627 2.44383 0.442627 12.6995V23.9488C0.442627 34.221 2.86939 36.6667 13.1487 36.6667H24.4039C34.6814 36.6667 37.1284 34.2412 37.1284 23.9672V12.7178C37.1284 2.44383 34.7016 0 24.4223 0ZM30.059 26.1617H27.3828C26.3703 26.1617 26.0658 25.3422 24.2499 23.5272C22.665 22 21.9955 21.8093 21.5938 21.8093C21.0399 21.8093 20.8876 21.9615 20.8876 22.726V25.1313C20.8876 25.7822 20.6767 26.1635 18.9763 26.1635C17.326 26.0527 15.7258 25.5516 14.3073 24.7015C12.8888 23.8514 11.6926 22.6766 10.8174 21.274C8.73942 18.689 7.29359 15.6551 6.59483 12.4135C6.59483 12.012 6.74708 11.649 7.51197 11.649H10.1864C10.8742 11.649 11.1219 11.9552 11.3915 12.661C12.6902 16.4817 14.906 19.8037 15.8048 19.8037C16.1496 19.8037 16.3 19.6515 16.3 18.7917V14.8573C16.1863 13.0625 15.2325 12.9103 15.2325 12.2613C15.2447 12.0902 15.3232 11.9305 15.4513 11.8162C15.5794 11.7018 15.747 11.6419 15.9185 11.649H20.1227C20.6968 11.649 20.8876 11.935 20.8876 12.6225V17.9318C20.8876 18.5057 21.1352 18.6963 21.3077 18.6963C21.6525 18.6963 21.9185 18.5057 22.5495 17.875C23.9048 16.2231 25.0121 14.3826 25.8365 12.4117C25.9208 12.1749 26.0802 11.9722 26.2906 11.8345C26.5009 11.6968 26.7505 11.6317 27.0013 11.649H29.6775C30.4791 11.649 30.6497 12.0505 30.4791 12.6225C29.506 14.8013 28.3019 16.8695 26.8876 18.7917C26.5996 19.2317 26.484 19.4608 26.8876 19.976C27.1535 20.3775 28.0909 21.1603 28.7218 21.9047C29.6388 22.8188 30.4003 23.8765 30.9762 25.036C31.2055 25.7803 30.8221 26.1617 30.059 26.1617Z" fill="white"/>
</svg>
