<svg width="32" height="22" viewBox="0 0 32 22" fill="none" xmlns="http://www.w3.org/2000/svg">
<path d="M12.7083 15.2792L20.6424 10.6954L12.7083 6.11167V15.2792ZM30.3803 3.31558C30.579 4.0337 30.7166 4.99629 30.8083 6.21862C30.9153 7.44095 30.9612 8.49522 30.9612 9.41197L31.0529 10.6954C31.0529 14.0416 30.8083 16.5015 30.3803 18.0753C29.9981 19.4504 29.1114 20.3366 27.7356 20.7185C27.0171 20.9172 25.7024 21.0547 23.6845 21.1464C21.6972 21.2533 19.878 21.2992 18.1964 21.2992L15.7658 21.3908C9.36046 21.3908 5.37052 21.1464 3.79594 20.7185C2.4201 20.3366 1.53345 19.4504 1.15127 18.0753C0.952539 17.3571 0.814955 16.3945 0.723232 15.1722C0.616222 13.9499 0.57036 12.8956 0.57036 11.9789L0.478638 10.6954C0.478638 7.34928 0.723232 4.88933 1.15127 3.31558C1.53345 1.94045 2.4201 1.05426 3.79594 0.672283C4.51444 0.473654 5.82913 0.336141 7.84703 0.244466C9.83436 0.137512 11.6535 0.0916749 13.3351 0.0916749L15.7658 0C22.1711 0 26.161 0.244467 27.7356 0.672283C29.1114 1.05426 29.9981 1.94045 30.3803 3.31558Z" fill="white"/>
</svg>
