<svg width="38" height="37" viewBox="0 0 38 37" fill="none" xmlns="http://www.w3.org/2000/svg">
<path d="M37.1942 4.34367C36.1725 6.21352 34.9191 7.80748 33.4339 9.12554C33.4486 9.47904 33.4559 9.87858 33.4559 10.3242C33.4559 12.8 33.1625 15.2787 32.5758 17.7605C31.9891 20.2423 31.0928 22.6178 29.8871 24.8871C28.6814 27.1563 27.2451 29.1666 25.5784 30.9181C23.9116 32.6696 21.9081 34.0661 19.5678 35.1076C17.2275 36.1492 14.7193 36.67 12.0433 36.67C7.86689 36.67 4.02083 35.2827 0.505127 32.5082C1.12912 32.5937 1.72759 32.6364 2.30052 32.6364C5.78956 32.6364 8.90584 31.3141 11.6494 28.6695C10.0226 28.6328 8.56565 28.0167 7.27861 26.821C5.99158 25.6254 5.10587 24.0977 4.62149 22.2377C5.10027 22.3499 5.57281 22.406 6.03911 22.406C6.71031 22.406 7.37077 22.2983 8.02047 22.0829C6.28438 21.6551 4.84415 20.5912 3.69977 18.8912C2.55544 17.1912 1.98327 15.229 1.98327 13.0048V12.8902C3.04889 13.6161 4.18553 14.0023 5.39321 14.0486C4.36477 13.205 3.54937 12.1049 2.94701 10.7484C2.34461 9.3918 2.04341 7.92376 2.04341 6.34423C2.04341 4.67837 2.38268 3.12713 3.06121 1.69052C4.94918 4.54117 7.23684 6.8195 9.9242 8.52551C12.6116 10.2315 15.4947 11.179 18.5734 11.3679C18.4421 10.6946 18.3763 9.99195 18.3761 9.25997C18.3761 6.70417 19.1112 4.5219 20.5813 2.71314C22.0515 0.904379 23.8252 0 25.9024 0C28.0771 0 29.909 0.974333 31.3978 2.923C33.0989 2.50841 34.6918 1.75852 36.1762 0.673334C35.6043 2.88796 34.5023 4.59638 32.8701 5.79862C34.3702 5.57929 35.8116 5.0943 37.1942 4.34367H37.1942Z" fill="white"/>
</svg>
