<svg width="32" height="28" viewBox="0 0 32 28" fill="none" xmlns="http://www.w3.org/2000/svg">
<path fill-rule="evenodd" clip-rule="evenodd" d="M7.23856 16.4541C7.30425 16.476 7.37179 16.4919 7.44035 16.5015C7.87286 17.5201 8.30294 18.5397 8.73058 19.5604C9.49953 21.397 10.2746 23.2885 10.4443 23.8325C10.6568 24.5017 10.88 24.957 11.1245 25.2687C11.2514 25.4276 11.3967 25.5682 11.5679 25.6751C11.6571 25.7309 11.7525 25.776 11.8522 25.8096C12.3414 25.9929 12.7878 25.9165 13.0675 25.8233C13.2317 25.7673 13.3879 25.6903 13.5323 25.5941L13.5399 25.5911L17.8601 22.8989L22.8513 26.7217C22.9247 26.7783 23.0042 26.8256 23.0898 26.8638C23.689 27.1236 24.2699 27.2153 24.8172 27.1419C25.3614 27.0655 25.7941 26.8379 26.1166 26.5797C26.487 26.2813 26.7823 25.9003 26.9788 25.4673L26.9926 25.4337L26.9972 25.4215L27.0002 25.4154V25.4123L27.0018 25.4108C27.0283 25.3451 27.0488 25.2771 27.0629 25.2076L31.6185 2.25064C31.6329 2.17715 31.64 2.10244 31.6399 2.02756C31.6399 1.35528 31.3861 0.71508 30.7914 0.328517C30.2808 -0.00304111 29.7137 -0.0183205 29.3544 0.00918204C28.9692 0.0397404 28.6115 0.134471 28.3715 0.210867C28.2371 0.253427 28.1045 0.30134 27.974 0.354491L27.9572 0.362131L2.4063 10.3792L2.40324 10.3807C2.31679 10.4125 2.23163 10.4476 2.14795 10.4861C1.94534 10.5772 1.75098 10.6855 1.56704 10.81C1.22002 11.0469 0.420504 11.6977 0.556559 12.7734C0.663569 13.629 1.25059 14.1562 1.60984 14.4098C1.80552 14.5488 1.99202 14.6481 2.1296 14.7139C2.19075 14.7444 2.32222 14.7964 2.37878 14.8208L2.39407 14.8254L7.23856 16.4541ZM28.8515 2.47066H28.8484C28.8353 2.4765 28.822 2.4821 28.8087 2.48746L3.22722 12.5182C3.21406 12.5236 3.20081 12.5286 3.18747 12.5335L3.17219 12.5381C3.12545 12.5565 3.07955 12.5768 3.0346 12.5992C3.07715 12.6236 3.12104 12.6455 3.16607 12.6649L7.96929 14.2814C8.05512 14.3104 8.13722 14.3493 8.21388 14.3976L24.0773 5.11548L24.0926 5.10784C24.1542 5.07041 24.2175 5.03575 24.2822 5.00394C24.3922 4.94741 24.568 4.8649 24.7668 4.80378C24.9044 4.761 25.3125 4.6403 25.7528 4.78239C25.9863 4.85596 26.1944 4.99369 26.3534 5.17984C26.5123 5.36599 26.6157 5.59306 26.6517 5.83513C26.7086 6.04713 26.7102 6.27018 26.6563 6.48296C26.5493 6.90314 26.2557 7.23012 25.9867 7.48069C25.7574 7.6946 22.784 10.561 19.8504 13.3907L15.8559 17.241L15.1451 17.9286L24.1217 24.8073C24.2428 24.8581 24.3744 24.8791 24.5054 24.8684C24.5713 24.8594 24.6334 24.8319 24.6842 24.7889C24.7462 24.7366 24.7994 24.6747 24.8417 24.6056L24.8447 24.6041L29.2627 2.33773C29.1235 2.37119 28.9871 2.41511 28.8546 2.46913L28.8515 2.47066ZM15.9171 21.4077L14.1254 20.0356L13.6913 22.7935L15.9171 21.4077ZM12.482 17.3128L14.263 15.5939L18.2575 11.7405L19.745 10.3073L9.77775 16.1394L9.83126 16.2647C10.4599 17.749 11.0816 19.2361 11.6963 20.7262L12.1289 17.976C12.1681 17.7209 12.2925 17.4881 12.482 17.3128Z" fill="white"/>
</svg>
